<svg class="ci ci-farming-barn-silo" width="1em" height="1em" viewBox="0 0 20 20" fill="currentColor" xmlns="http://www.w3.org/2000/svg">
  <defs>
    <path id="a" d="M9.72 3.016c.23.497.035 1.095-.438 1.338-.472.242-1.043.037-1.273-.46-.657-1.411-2.154-2.16-3.612-1.807-1.34.325-2.322 1.503-2.472 2.91H7.5c.526 0 .952.448.952 1 0 .513-.367.936-.84.993l-.112.007H1.904v1.75h1.43c.525 0 .952.448.952 1 0 .513-.368.936-.842.993l-.11.007h-1.43v6.75h1.43c.488 0 .89.386.945.883l.007.117c0 .513-.368.936-.842.993l-.11.007H.951c-.488 0-.89-.386-.946-.883L0 18.497V5.371C.002 2.87 1.648.701 3.969.138 6.29-.424 8.674.768 9.72 3.016zM5.714 19.497c-.488 0-.89-.386-.946-.883l-.006-.117V13.84a.921.921 0 01-.912-.26 1.038 1.038 0 01-.079-1.32l.08-.095 6.3-6.616c.402-.422.947-.66 1.516-.66.505 0 .992.188 1.376.526l.14.134 6.3 6.616c.372.39.372 1.024 0 1.414a.921.921 0 01-.912.261v4.657c0 .513-.367.936-.84.993l-.112.007H5.714zM11.667 6.89a.23.23 0 00-.12.033l-.049.04-4.832 5.074v5.46h.476v-2.75c0-1.189.879-2.162 1.99-2.244l.154-.006h4.762c1.132 0 2.059.922 2.137 2.09l.005.16v2.75h.477l-.001-5.461-4.83-5.073a.232.232 0 00-.17-.073zm0 1.545c.647 0 1.18.516 1.243 1.178l.007.134c0 .68-.492 1.239-1.123 1.306l-.127.007c-.69 0-1.25-.588-1.25-1.313l.002-.055.004-.08c.064-.661.596-1.177 1.244-1.177z"/>
  </defs>
  <g fill="none" fill-rule="evenodd">
    <use fill="var(--ci-path)" href="#a"/>
    <path fill="var(--ci-fill)" fill-rule="nonzero" d="M14.048 14.497l.054.007a.248.248 0 01.184.243v2.75H9.048v-2.75c0-.138.106-.25.238-.25h4.762z"/>
  </g>
</svg>