<svg class="ci ci-farming-barn-silo" width="1em" height="1em" viewBox="0 0 20 20" fill="currentColor" xmlns="http://www.w3.org/2000/svg">
  <g fill="none" fill-rule="evenodd">
    <path fill="var(--ci-path)" d="M9.844 3.826a.923.923 0 11-1.659.81A3.116 3.116 0 002.29 5.653h5.403a.923.923 0 01.095 1.842l-.095.005H2.27v1.615h1.385a.923.923 0 01.094 1.842l-.094.005H2.269v6.23h1.385c.478 0 .87.364.918.829l.005.094a.923.923 0 01-.829.919l-.094.004H1.346a.923.923 0 01-.918-.828l-.005-.095V6a4.962 4.962 0 019.421-2.173zm1.887 1.729c.5 0 .983.18 1.36.506l.109.102 6.107 6.107a.923.923 0 01-.884 1.547v4.298a.923.923 0 01-.829.919l-.094.004H5.962a.923.923 0 01-.919-.828l-.005-.095v-4.298a.923.923 0 01-.95-1.472l.067-.075 6.107-6.106c.39-.39.918-.61 1.469-.61zm0 1.846a.23.23 0 00-.128.039l-.036.029-4.683 4.682v5.041h.462v-2.538c0-1.097.85-1.996 1.929-2.072l.148-.005h4.615c1.148 0 2.077.93 2.077 2.077v2.538h.462V12.15l-4.684-4.68a.23.23 0 00-.163-.068zm0 1.639a1 1 0 110 2 1 1 0 010-2z"/>
    <path fill="var(--ci-fill)" fill-rule="nonzero" d="M14.038 14.423l.053.006a.23.23 0 01.178.225v2.538H9.192v-2.538a.23.23 0 01.231-.23h4.615z"/>
  </g>
</svg>