<svg class="ci ci-farmstead" width="1em" height="1em" viewBox="0 0 20 20" fill="currentColor" xmlns="http://www.w3.org/2000/svg">
  <g fill="none" fill-rule="evenodd">
    <path fill="var(--ci-path)" d="M6.495 1.123a4.503 4.503 0 014.483 4.105.975.975 0 01.022.208v1.89a1 1 0 01-2 0l-.001-.203H3.99v9.747l4.009-.008v-3.018l-.364.27a1 1 0 01-1.191-1.606l1.916-1.422c.033-.027.068-.053.105-.076l3.729-2.764a1 1 0 011.19 0l5.75 4.262a1 1 0 01-1.19 1.606l-.445-.329v3.06l1.499-.003a1 1 0 01.995.882l.007.116a1 1 0 01-.998 1.002l-15.954.03-.058.004-.054-.001-1.934.002a1 1 0 01-.004-2l.992-.003V5.436c0-.071.008-.14.022-.207a4.504 4.504 0 014.483-4.106zm6.294 9.172L10 12.36v4.497l5.5-.01v-4.545l-2.71-2.008z"/>
    <path fill="var(--ci-fill)" fill-rule="nonzero" d="M8.945 5.123a2.502 2.502 0 00-2.45-2c-1.209 0-2.218.86-2.45 2h4.9z"/>
  </g>
</svg>