<svg class="ci ci-maps-pin" width="1em" height="1em" viewBox="0 0 20 20" fill="currentColor" xmlns="http://www.w3.org/2000/svg">
  <g fill="none" fill-rule="evenodd">
    <path fill="var(--ci-path)" d="M10 0C7.477 0 5.4 2.077 5.4 4.6c0 .577.215 1.318.587 2.103.726 1.533 2.038 3.309 2.752 4.223a1.603 1.603 0 002.522 0c.715-.915 2.026-2.69 2.752-4.223.372-.785.587-1.526.587-2.103C14.6 2.077 12.523 0 10 0zm0 9.285c.566-.746 1.334-1.819 1.905-2.854.379-.688.695-1.34.695-1.831C12.6 3.174 11.426 2 10 2a2.612 2.612 0 00-2.6 2.6c0 .49.316 1.143.695 1.832.57 1.034 1.338 2.107 1.905 2.853z"/>
    <path fill="var(--ci-fill)" fill-rule="nonzero" d="M10 9.285c.566-.746 1.334-1.819 1.905-2.854.379-.688.695-1.34.695-1.831C12.6 3.174 11.426 2 10 2a2.612 2.612 0 00-2.6 2.6c0 .49.316 1.143.695 1.832.57 1.034 1.338 2.107 1.905 2.853z"/>
    <circle cx="10" cy="4.6" r="1" fill="var(--ci-path)"/>
    <path fill="var(--ci-path)" d="M15.22 10.8l-.48-1.467a.203.203 0 00-.15-.13 1 1 0 01.397-1.96 2.203 2.203 0 011.646 1.445l.92 2.81 1.176 3.59.006.015.002.007.641 1.957c.083.235.126.483.126.733a2.21 2.21 0 01-2.2 2.2H2.696a2.21 2.21 0 01-2.198-2.2c0-.25.041-.497.118-.71l1.829-5.582v-.005l.004-.01.92-2.804A2.203 2.203 0 015 7.246a1.001 1.001 0 01.41 1.958c-.068.014-.125.063-.141.109L4.78 10.8H7.6l.027.001.035.001.019.002h.02l.034.006.029.004.016.004.02.002.037.01.027.006.014.004.018.005.034.012.028.01.015.007.015.005.03.014.032.014.014.008.011.006.025.015.034.02.014.009.01.005.023.018.033.023.012.011.008.006.023.02.03.026.01.011.01.008.02.024.026.026.008.011.01.01.021.029.02.026.007.01.009.012.02.034.016.025.006.01.008.013.017.037.013.025.005.01.007.016.013.036.012.027.003.013.006.016.008.034.01.03.003.016.003.015.006.03.006.036.001.019.002.015.002.027.004.037-.001.022v.044l-.001.035-.003.02v.02l-.005.033-.003.028L8.18 14.4h3.638l-.405-2.436-.003-.028-.006-.034v-.02l-.003-.02-.001-.034-.001-.028.001-.016v-.022l.003-.037.001-.027.002-.015.002-.02.007-.035.004-.03.005-.015.002-.015.01-.031.008-.034.005-.016.005-.013.01-.027.013-.036.008-.015.004-.011.013-.025.017-.037.009-.013.005-.01.016-.025.02-.034.01-.012.006-.01.02-.026.023-.029.008-.01.009-.01.025-.027.022-.024.009-.008.01-.01.03-.027.022-.02.009-.006.013-.01.032-.024.022-.018.011-.005.013-.01.034-.019.025-.015.012-.006.015-.008.031-.014.03-.014.014-.005.015-.008.03-.009.033-.012.018-.005.015-.004.026-.007.036-.009.022-.002.016-.004.028-.004.034-.005.02-.001.019-.002h.034l.03-.002h2.819zm1.835 5.6h-2.874l.266 1.6h2.856c.175-.017.225-.162.182-.289l-.43-1.311zm-9.208 0L7.58 18h4.84l-.267-1.6H7.847zM5.552 18l.268-1.6H2.945l-.43 1.312c-.043.127.008.27.181.288h2.856zm-1.427-5.2l-.524 1.6h2.552l.266-1.6H4.125zM16.4 14.4l-.525-1.6H13.58l.267 1.6H16.4z"/>
  </g>
</svg>