<svg class="ci ci-pin-train" width="1em" height="1em" viewBox="0 0 20 20" fill="currentColor" xmlns="http://www.w3.org/2000/svg">
  <path fill="var(--ci-path)" fill-rule="evenodd" d="M12.524 0a1 1 0 01.993.883l.007.117v1.328h.848a1 1 0 01.116 1.994l-.116.007-.848-.001v2.448h.848a1 1 0 01.116 1.994l-.116.006h-.848v2.447h.848a1 1 0 01.116 1.994l-.116.007-.848-.001v2.448h.848a1 1 0 01.116 1.994l-.116.006h-.848V19a1 1 0 01-1.994.117L11.524 19v-1.329H7.602V19a1 1 0 01-1.993.117L5.603 19l-.001-1.329h-.753a1 1 0 01-.117-1.993l.117-.007h.753v-2.448h-.753a1 1 0 01-.117-1.993l.117-.006.753-.001V8.776h-.753a1 1 0 01-.117-1.993l.117-.007h.753V4.328h-.753a1 1 0 01-.117-1.993l.117-.006.753-.001V1A1 1 0 017.597.883L7.603 1l-.001 1.328h3.922V1a1 1 0 011-1zm-1 13.223H7.602v2.448h3.922v-2.448zm0-4.447H7.602v2.447h3.922V8.776zm0-4.448H7.602v2.448h3.922V4.328z"/>
</svg>