<svg class="ci ci-pin-marker" width="1em" height="1em" viewBox="0 0 20 20" fill="currentColor" xmlns="http://www.w3.org/2000/svg">
  <g fill="none" fill-rule="evenodd">
    <path fill="var(--ci-path)" d="M10.11 3.617a4.6 4.6 0 013.07 1.268l.084.083A4.617 4.617 0 1110 3.616l.11.001zM9.876 5.62a2.617 2.617 0 101.975.763l-.048-.047A2.611 2.611 0 0010 5.615l-.125.004z"/>
    <path fill="var(--ci-path)" d="M10.794 19.79c-.492.28-1.097.28-1.59-.002-1.47-.84-7.436-4.709-7.436-11.556l.002-.212A8.232 8.232 0 0110 0a8.232 8.232 0 018.232 8.232v.16c-.092 6.749-5.979 10.563-7.438 11.397zm5.439-11.558a6.233 6.233 0 00-12.466 0c0 5.579 4.709 8.798 6.233 9.705 1.524-.907 6.233-4.125 6.233-9.705z"/>
    <path fill="var(--ci-fill)" fill-rule="nonzero" d="M9.875 5.619a2.617 2.617 0 101.975.763l-.048-.047A2.611 2.611 0 0010 5.615l-.125.004z"/>
  </g>
</svg>