<svg class="ci ci-pin-airplane" width="1em" height="1em" viewBox="0 0 20 20" fill="currentColor" xmlns="http://www.w3.org/2000/svg">
  <g fill="var(--ci-path)" fill-rule="evenodd">
    <path d="M18.232 8.232C18.232 3.716 14.516 0 10 0 5.484 0 1.768 3.716 1.768 8.232c0 6.85 5.965 10.72 7.439 11.558.49.28 1.095.28 1.587 0 1.471-.841 7.438-4.71 7.438-11.558zM10 17.937c1.525-.907 6.234-4.125 6.234-9.705C16.233 4.812 13.419 2 10 2 6.58 2 3.767 4.813 3.767 8.232c0 5.58 4.705 8.798 6.232 9.705z"/>
    <path d="M14.487 10.612a1.07 1.07 0 01-1.474 0l-1.616-1.616a.209.209 0 00-.355.147v1.796c0 .11.044.216.121.294l1.24 1.24a1.04 1.04 0 01-.736 1.778c-.276 0-.542-.11-.737-.305l-.635-.636a.417.417 0 00-.59 0l-.635.636a1.044 1.044 0 01-.737.305c-.572 0-1.042-.47-1.042-1.042 0-.276.11-.542.305-.737l1.237-1.239a.42.42 0 00.122-.294V9.143a.209.209 0 00-.356-.147l-1.613 1.616a1.07 1.07 0 01-1.473 0 1.047 1.047 0 010-1.473l3.32-3.323a.42.42 0 00.122-.294v-1.48C8.955 3.47 9.425 3 9.997 3c.571 0 1.041.47 1.041 1.042v1.48c0 .11.044.216.122.294l3.323 3.323a1.045 1.045 0 010 1.473h.004z"/>
  </g>
</svg>